<?xml version="1.0" encoding="UTF-8" standalone="no"?>
<svg id="Layer_1" data-name="Layer 1" viewBox="0 0 198.89 69.449995" version="1.1" sodipodi:docname="logo_blue.svg" width="198.89" height="69.449997" inkscape:version="1.1.2 (08b2f3d93c, 2022-04-05)" xmlns:inkscape="http://www.inkscape.org/namespaces/inkscape" xmlns:sodipodi="http://sodipodi.sourceforge.net/DTD/sodipodi-0.dtd" xmlns:xlink="http://www.w3.org/1999/xlink" xmlns="http://www.w3.org/2000/svg" xmlns:svg="http://www.w3.org/2000/svg">
  <sodipodi:namedview id="namedview21" pagecolor="#ffffff" bordercolor="#666666" borderopacity="1.0" inkscape:pageshadow="2" inkscape:pageopacity="0.0" inkscape:pagecheckerboard="0" showgrid="false" fit-margin-top="0" fit-margin-left="0" fit-margin-right="0" fit-margin-bottom="0" inkscape:zoom="2.424" inkscape:cx="99.628712" inkscape:cy="17.120462" inkscape:window-width="1848" inkscape:window-height="1016" inkscape:window-x="72" inkscape:window-y="27" inkscape:window-maximized="1" inkscape:current-layer="Layer_1"/>
  <defs id="defs16">
    <style id="style2">.cls-1{fill:url(#New_Gradient_Swatch);}.cls-2{fill:url(#New_Gradient_Swatch-2);}.cls-3{fill:url(#New_Gradient_Swatch-3);}.cls-4{fill:url(#New_Gradient_Swatch-4);}.cls-5{fill:url(#New_Gradient_Swatch-5);}.cls-6{fill:url(#New_Gradient_Swatch-6);}.cls-7{fill:url(#New_Gradient_Swatch-7);}.cls-8{fill:url(#New_Gradient_Swatch-8);}</style>
    <linearGradient id="New_Gradient_Swatch" x1="-33.860001" y1="32.939999" x2="198.89" y2="97.849998" gradientUnits="userSpaceOnUse">
      <stop offset="0" stop-color="#3dc3cd" id="stop4"/>
      <stop offset="1" stop-color="#524263" id="stop6"/>
    </linearGradient>
    <linearGradient id="New_Gradient_Swatch-2" x1="-25.41" y1="2.6199999" x2="207.34" y2="67.529999" xlink:href="#New_Gradient_Swatch"/>
    <linearGradient id="New_Gradient_Swatch-3" x1="-24.790001" y1="0.40000001" x2="207.96001" y2="65.309998" xlink:href="#New_Gradient_Swatch"/>
    <linearGradient id="New_Gradient_Swatch-4" x1="-23.389999" y1="-4.6100001" x2="209.36" y2="60.299999" xlink:href="#New_Gradient_Swatch"/>
    <linearGradient id="New_Gradient_Swatch-5" x1="-22.82" y1="-6.6500001" x2="209.92999" y2="58.25" xlink:href="#New_Gradient_Swatch"/>
    <linearGradient id="New_Gradient_Swatch-6" x1="-22.549999" y1="-7.6399999" x2="210.21001" y2="57.27" xlink:href="#New_Gradient_Swatch"/>
    <linearGradient id="New_Gradient_Swatch-7" x1="-21.41" y1="-11.71" x2="211.34" y2="53.200001" xlink:href="#New_Gradient_Swatch"/>
    <linearGradient id="New_Gradient_Swatch-8" x1="-21.65" y1="-10.86" x2="211.10001" y2="54.049999" xlink:href="#New_Gradient_Swatch"/>
    <linearGradient inkscape:collect="always" xlink:href="#New_Gradient_Swatch" id="linearGradient23" gradientUnits="userSpaceOnUse" x1="-33.860001" y1="32.939999" x2="198.89" y2="97.849998" gradientTransform="translate(-0.11,-35.42)"/>
  </defs>
  <path class="cls-1" d="M 94.32,20.8 H 89.4 v 27 h 4.92 z m -16.31,7 h -4.74 v 20 H 78.2 V 37.15 c 0,-3.18 1.89,-4.38 5.07,-4.38 h 1.38 v -5 H 83.2 a 5.44,5.44 0 0 0 -5.19,3 z m -19.12,0.01 h -3 v 4.12 h 3 v 11.38 c 0,3.33 1.39,4.67 5.29,4.67 a 20.3,20.3 0 0 0 2.71,-0.1 c 0.4,0 0.73,-0.11 1.06,-0.15 v -4.15 a 4.3,4.3 0 0 1 -0.66,0 c -0.4,0 -0.91,0 -1.38,0 -1.61,0 -2,-0.25 -2,-1.75 v -10 h 4.49 v -4.02 h -4.51 v -5.55 h -5 z m -28.6,7.29 c 0,5.22 2.33,13.1 11.71,13.1 7.08,0 9.92,-4.71 10.21,-8.79 H 47 c 0,1.31 -1.06,4.34 -5.11,4.34 -3.83,0 -6.24,-3 -6.24,-8.57 0,-5.88 2.23,-8.87 6.17,-8.87 3.58,0 4.93,2.33 5,4.16 h 5.29 c 0,-3.21 -2.38,-8.61 -10,-8.61 -8.75,0 -11.78,7.11 -11.78,13.24 M 153,35.16 a 13.78,13.78 0 0 1 0.38,-3.29 8.48,8.48 0 0 1 1.21,-2.83 6.07,6.07 0 0 1 2.16,-2 7.51,7.51 0 0 1 6.5,0 6.19,6.19 0 0 1 2.17,2 8.91,8.91 0 0 1 1.21,2.83 14.31,14.31 0 0 1 0.38,3.29 13.33,13.33 0 0 1 -0.38,3.16 8.81,8.81 0 0 1 -1.21,2.76 6.33,6.33 0 0 1 -2.17,2 7.51,7.51 0 0 1 -6.5,0 6.21,6.21 0 0 1 -2.16,-2 8.38,8.38 0 0 1 -1.21,-2.76 12.83,12.83 0 0 1 -0.38,-3.16 m -4.53,-5.24 a 15.8,15.8 0 0 0 -0.85,5.23 15.35,15.35 0 0 0 0.85,5.14 12.24,12.24 0 0 0 2.42,4.14 11.12,11.12 0 0 0 3.9,2.77 14.07,14.07 0 0 0 10.42,0 11.14,11.14 0 0 0 3.88,-2.77 12.43,12.43 0 0 0 2.44,-4.14 15.35,15.35 0 0 0 0.84,-5.14 15.8,15.8 0 0 0 -0.84,-5.23 12.7,12.7 0 0 0 -2.44,-4.22 11.13,11.13 0 0 0 -3.88,-2.82 13.82,13.82 0 0 0 -10.42,0 11.12,11.12 0 0 0 -3.9,2.82 12.51,12.51 0 0 0 -2.43,4.22 m 45,34.19 h -66.7 V 5.34 h 66.7 z m -72.85,0.22 H 5.48 V 5.12 H 120.59 Z M 198.89,0 H 0 v 69.45 h 198.89 z" id="path18" style="fill:url(#linearGradient23)"/>
</svg>