<?xml version="1.0" encoding="UTF-8" standalone="no"?>
<!-- Generator: Adobe Illustrator 24.0.0, SVG Export Plug-In . SVG Version: 6.00 Build 0)  -->

<svg
   xmlns:dc="http://purl.org/dc/elements/1.1/"
   xmlns:cc="http://creativecommons.org/ns#"
   xmlns:rdf="http://www.w3.org/1999/02/22-rdf-syntax-ns#"
   xmlns:svg="http://www.w3.org/2000/svg"
   xmlns="http://www.w3.org/2000/svg"
   xmlns:sodipodi="http://sodipodi.sourceforge.net/DTD/sodipodi-0.dtd"
   xmlns:inkscape="http://www.inkscape.org/namespaces/inkscape"
   version="1.1"
   id="Layer_1"
   x="0px"
   y="0px"
   viewBox="0 0 623.62999 99.700006"
   xml:space="preserve"
   sodipodi:docname="simplelists-transparent.svg"
   width="623.63"
   height="99.700005"
   inkscape:version="0.92.5 (2060ec1f9f, 2020-04-08)"><metadata
   id="metadata47"><rdf:RDF><cc:Work
       rdf:about=""><dc:format>image/svg+xml</dc:format><dc:type
         rdf:resource="http://purl.org/dc/dcmitype/StillImage" /><dc:title></dc:title></cc:Work></rdf:RDF></metadata><defs
   id="defs45">
	
	
	
	
	
	
	
</defs><sodipodi:namedview
   pagecolor="#ffffff"
   bordercolor="#666666"
   borderopacity="1"
   objecttolerance="10"
   gridtolerance="10"
   guidetolerance="10"
   inkscape:pageopacity="0"
   inkscape:pageshadow="2"
   inkscape:window-width="1920"
   inkscape:window-height="1015"
   id="namedview43"
   showgrid="false"
   fit-margin-top="0"
   fit-margin-left="0"
   fit-margin-right="0"
   fit-margin-bottom="0"
   inkscape:zoom="1.1212982"
   inkscape:cx="344.87371"
   inkscape:cy="36.150009"
   inkscape:window-x="0"
   inkscape:window-y="0"
   inkscape:window-maximized="1"
   inkscape:current-layer="Layer_1" />
<style
   type="text/css"
   id="style2">
	.st0{fill:#0071BD;}
	.st1{fill:#FFFFFF;}
	.st2{fill:#99C6E5;}
	.st3{fill:#338DCA;}
</style>
<circle
   style="fill:#ffffff"
   id="circle6"
   r="11.61"
   cy="12.680003"
   cx="556.94"
   class="st1" /><circle
   style="fill:#ffffff;fill-opacity:0.6"
   id="circle8"
   r="11.61"
   cy="12.680003"
   cx="584.91003"
   class="st2" /><circle
   style="fill:#ffffff;fill-opacity:0.2"
   id="circle10"
   r="11.61"
   cy="12.680003"
   cx="612.02002"
   class="st3" /><circle
   style="fill:#ffffff;fill-opacity:0.6"
   id="circle12"
   r="11.61"
   cy="40.970009"
   cx="556.94"
   class="st2" /><circle
   style="fill:#ffffff;fill-opacity:0.2"
   id="circle14"
   r="11.61"
   cy="40.970009"
   cx="584.91003"
   class="st3" /><circle
   style="fill:#ffffff;fill-opacity:0.2"
   id="circle16"
   r="11.61"
   cy="68.250008"
   cx="556.94"
   class="st3" />
<path
   class="st1"
   d="m 23.98,77.340004 c -2.68,0 -5.25,-0.36 -7.71,-1.050004 C 13.8,75.59 11.67,74.63 9.85,73.41 8.04,72.19 6.65,70.75 5.7,69.09 l 1.94,1.17 v 5.76 H 0.13 v -17.8 h 6.74 l 0.78,8.51 -1.81,-6.15 c 0.95,3.22 3.09,5.71 6.42,7.46 3.32,1.75 6.8,2.62 10.43,2.62 3.28,0 6.03,-0.66 8.23,-1.96 2.2,-1.31 3.3,-3.15 3.3,-5.5 0,-2.79 -0.93,-4.73 -2.79,-5.82 -1.85,-1.09 -4.81,-2.07 -8.88,-2.95 L 15.42,52.86 C 10.67,51.64 6.91,50 4.14,47.95 1.38,45.9 0,42.48 0,37.67 0,33.04 1.79,29.49 5.37,27 c 3.58,-2.49 8.06,-3.73 13.41,-3.73 2.08,0 4.26,0.29 6.54,0.85 2.29,0.57 4.38,1.42 6.29,2.55 1.9,1.13 3.24,2.53 4.02,4.19 l -1.95,-0.65 v -5.9 h 7.65 v 17.67 h -6.74 l -1.68,-12.44 2.2,8.64 c -0.35,-1.57 -1.32,-2.94 -2.91,-4.12 -1.6,-1.17 -3.46,-2.11 -5.57,-2.81 -2.12,-0.7 -4.21,-1.05 -6.28,-1.05 -2.77,0 -5.25,0.56 -7.46,1.7 -2.2,1.13 -3.3,2.97 -3.3,5.5 0,1.91 0.75,3.4 2.27,4.45 1.51,1.05 3.99,2 7.45,2.88 l 6.61,1.44 c 3.28,0.78 6.24,1.73 8.88,2.81 2.63,1.09 4.73,2.66 6.28,4.71 1.56,2.05 2.33,4.95 2.33,8.71 0,3.4 -0.93,6.21 -2.79,8.44 -1.86,2.22 -4.28,3.86 -7.25,4.9 -2.97,1.080004 -6.1,1.600004 -9.39,1.600004 z"
   id="path20"
   inkscape:connector-curvature="0"
   style="fill:#ffffff" />
<path
   class="st1"
   d="M 50.62,76.03 V 69.1 h 9.44 V 31.53 H 50.75 V 24.6 h 18.37 v 44.51 h 8.82 v 6.93 H 50.62 Z m 12.79,-62.7 c -1.82,0 -3.39,-0.63 -4.72,-1.89 C 57.36,10.18 56.7,8.58 56.7,6.66 56.7,4.75 57.36,3.15 58.69,1.89 60.01,0.63 61.58,0 63.41,0 c 1.9,0 3.49,0.63 4.78,1.89 1.28,1.26 1.93,2.86 1.93,4.77 0,1.92 -0.65,3.52 -1.93,4.78 -1.29,1.26 -2.88,1.89 -4.78,1.89 z"
   id="path22"
   inkscape:connector-curvature="0"
   style="fill:#ffffff" />
<path
   class="st1"
   d="M 82.26,76.03 V 69.1 h 9.439997 V 31.53 H 82.26 V 24.6 h 18.49 v 6.41 l -3.350003,1.05 C 100.79,29.45 104.24,27.33 107.76,25.72 c 3.51,-1.62 6.97,-2.43 10.36,-2.43 5.05,0 8.98,1.64 11.79,4.91 2.81,3.27 4.22,7.44 4.22,12.5 v 28.41 h 8.94 v 6.93 h -26.18 v -6.93 h 8.19 V 42.27 c 0,-3.58 -0.83,-6.37 -2.48,-8.38 -1.66,-2 -3.93,-3.01 -6.83,-3.01 -2.73,0 -5.73,0.7 -9,2.09 -3.27,1.4 -6.48,3.23 -9.620003,5.5 L 100.75,34.67 V 69.1 h 8.82 v 6.93 z m 68.5,0 V 69.1 h 8.19 V 42.26 c 0,-3.58 -0.83,-6.37 -2.48,-8.38 -1.66,-2 -3.93,-3.01 -6.83,-3.01 -2.81,0 -5.69,0.63 -8.62,1.89 -2.94,1.27 -5.73,2.91 -8.37,4.91 l -1.86,-5.37 c 3.47,-2.62 6.91,-4.78 10.3,-6.48 3.39,-1.71 7.03,-2.55 10.92,-2.55 4.38,0 8.15,1.46 11.29,4.39 3.14,2.92 4.72,7.18 4.72,12.76 v 28.67 h 8.93 v 6.93 h -26.19 z"
   id="path24"
   inkscape:connector-curvature="0"
   style="fill:#ffffff" />
<path
   class="st1"
   d="m 179.15,99.700004 v -7.36 h 9.76 V 30.87 h -9.49 v -7.35 h 18.98 l 0.13,6.24 -3.02,1.53 c 2.75,-2.87 6.03,-5.11 9.83,-6.74 3.8,-1.62 7.68,-2.43 11.62,-2.43 4.86,0 9.28,1.07 13.27,3.2 3.98,2.13 7.15,5.27 9.49,9.43 2.34,4.16 3.51,9.25 3.51,15.27 0,6.2 -1.29,11.5 -3.85,15.89 -2.57,4.4 -5.98,7.75 -10.25,10.06 -4.26,2.310004 -8.87,3.470004 -13.82,3.470004 -2.75,0 -5.34,-0.37 -7.77,-1.11 -2.43,-0.74 -4.56,-1.690004 -6.39,-2.840004 -1.84,-1.15 -3.21,-2.48 -4.12,-3.95 l 2.06,-0.41 -0.14,21.210004 h 10.59 v 7.36 z M 213.52,71.81 c 5.41,0 9.95,-1.79 13.62,-5.35 3.66,-3.56 5.5,-8.76 5.5,-15.61 0,-6.66 -1.74,-11.79 -5.22,-15.39 -3.49,-3.61 -7.88,-5.41 -13.2,-5.41 -1.65,0 -3.62,0.31 -5.91,0.91 -2.29,0.6 -4.58,1.55 -6.87,2.84 -2.29,1.29 -4.22,3.01 -5.78,5.13 l 3.3,-5.82 0.14,34.82 -3.16,-4.3 c 2.38,2.59 5.13,4.61 8.25,6.04 3.1,1.42 6.21,2.14 9.33,2.14 z"
   id="path26"
   inkscape:connector-curvature="0"
   style="fill:#ffffff" />
<path
   class="st1"
   d="M 247.47,76.03 V 69.1 h 8.93 V 7.84 h -8.68 v -6.8 h 17.73 v 68.07 h 7.82 v 6.93 h -25.8 z"
   id="path28"
   inkscape:connector-curvature="0"
   style="fill:#ffffff" />
<path
   class="st1"
   d="m 309.06,77.600004 c -5.68,0 -10.83,-1.130004 -15.45,-3.400004 -4.62,-2.27 -8.29,-5.45 -10.99,-9.56 -2.7,-4.1 -4.05,-8.86 -4.05,-14.26 0,-5.59 1.29,-10.41 3.85,-14.47 2.56,-4.06 6,-7.2 10.3,-9.43 4.3,-2.22 9.11,-3.33 14.42,-3.33 5.5,0 10.24,1.09 14.22,3.27 3.98,2.18 7.03,5.28 9.13,9.29 2.11,4.01 3.16,8.73 3.16,14.13 v 2.5 H 287.5 l 0.14,-6.03 h 35.99 c 0,-3.4 -0.71,-6.3 -2.13,-8.71 -1.42,-2.4 -3.37,-4.23 -5.84,-5.49 -2.47,-1.26 -5.31,-1.89 -8.51,-1.89 -3.39,0 -6.45,0.76 -9.21,2.29 -2.75,1.53 -4.92,3.71 -6.53,6.54 -1.6,2.84 -2.4,6.26 -2.4,10.28 0,4.28 0.82,7.97 2.47,11.07 1.65,3.1 3.96,5.49 6.94,7.2 2.97,1.7 6.38,2.55 10.23,2.55 4.12,0 7.92,-0.79 11.4,-2.36 3.48,-1.57 6.5,-3.54 9.07,-5.89 l 3.57,5.89 c -2.47,2.7 -5.68,5.02 -9.61,6.93 -3.95,1.92 -8.62,2.880004 -14.02,2.880004 z"
   id="path30"
   inkscape:connector-curvature="0"
   style="fill:#ffffff" />
<path
   class="st1"
   d="M 336.79,76.03 V 69.1 h 9.7 V 7.84 h -9.43 v -6.8 h 19.27 v 68.07 h 8.5 v 6.93 h -28.04 z"
   id="path32"
   inkscape:connector-curvature="0"
   style="fill:#ffffff" />
<path
   class="st1"
   d="M 368.15,76.03 V 69.1 h 10 V 31.53 h -9.87 V 24.6 h 19.48 v 44.51 h 9.34 v 6.93 h -28.95 z m 13.55,-62.7 c -1.93,0 -3.6,-0.63 -5,-1.89 -1.41,-1.26 -2.11,-2.86 -2.11,-4.78 0,-1.91 0.7,-3.51 2.11,-4.77 1.4,-1.26 3.07,-1.89 5,-1.89 2.02,0 3.7,0.63 5.06,1.89 1.37,1.26 2.05,2.86 2.05,4.77 0,1.92 -0.68,3.52 -2.05,4.78 -1.36,1.26 -3.04,1.89 -5.06,1.89 z"
   id="path34"
   inkscape:connector-curvature="0"
   style="fill:#ffffff" />
<path
   class="st1"
   d="m 425.1,77.340004 c -2.53,0 -4.95,-0.36 -7.28,-1.050004 -2.33,-0.7 -4.34,-1.66 -6.06,-2.88 -1.71,-1.22 -3.01,-2.66 -3.91,-4.32 l 1.83,1.17 v 5.76 h -7.09 v -17.8 h 6.36 l 0.74,8.51 -1.72,-6.15 c 0.9,3.22 2.92,5.71 6.06,7.46 3.14,1.75 6.42,2.62 9.84,2.62 3.1,0 5.68,-0.66 7.76,-1.96 2.07,-1.31 3.12,-3.15 3.12,-5.5 0,-2.79 -0.88,-4.73 -2.63,-5.82 -1.75,-1.09 -4.54,-2.07 -8.37,-2.95 l -6.73,-1.57 c -4.48,-1.22 -8.03,-2.86 -10.63,-4.91 -2.61,-2.05 -3.92,-5.47 -3.92,-10.28 0,-4.63 1.7,-8.18 5.08,-10.67 3.38,-2.49 7.59,-3.73 12.65,-3.73 1.95,0 4.01,0.29 6.17,0.85 2.16,0.57 4.13,1.42 5.93,2.55 1.8,1.13 3.06,2.53 3.79,4.19 l -1.83,-0.65 v -5.9 h 7.22 v 17.67 h -6.36 l -1.59,-12.44 2.08,8.64 c -0.34,-1.57 -1.25,-2.94 -2.75,-4.12 -1.51,-1.17 -3.26,-2.11 -5.26,-2.81 -2,-0.7 -3.97,-1.05 -5.94,-1.05 -2.6,0 -4.95,0.56 -7.02,1.7 -2.08,1.13 -3.12,2.97 -3.12,5.5 0,1.91 0.71,3.4 2.14,4.45 1.42,1.05 3.77,2 7.02,2.88 l 6.23,1.44 c 3.1,0.78 5.89,1.73 8.38,2.81 2.49,1.09 4.46,2.66 5.93,4.71 1.47,2.05 2.2,4.95 2.2,8.71 0,3.4 -0.88,6.21 -2.63,8.44 -1.75,2.22 -4.03,3.86 -6.84,4.9 -2.81,1.080004 -5.76,1.600004 -8.85,1.600004 z"
   id="path36"
   inkscape:connector-curvature="0"
   style="fill:#ffffff" />
<path
   class="st1"
   d="m 469.26,76.03 c -4.57,0 -8.03,-1.24 -10.39,-3.73 -2.37,-2.49 -3.54,-6.3 -3.54,-11.46 V 31.52 h -7.95 v -6.93 h 7.95 V 7.05 l 9.04,-3.8 v 21.34 h 12.71 v 6.93 h -12.71 v 28.8 c 0,3.23 0.48,5.5 1.47,6.8 0.98,1.31 2.64,1.97 5.01,1.97 h 7.34 v 6.93 h -8.93 z"
   id="path38"
   inkscape:connector-curvature="0"
   style="fill:#ffffff" />
<path
   class="st1"
   d="m 507.85,77.340004 c -2.67,0 -5.21,-0.36 -7.66,-1.050004 -2.45,-0.7 -4.57,-1.66 -6.37,-2.88 -1.8,-1.22 -3.16,-2.66 -4.11,-4.32 l 1.93,1.17 v 5.76 h -7.46 v -17.8 h 6.68 l 0.78,8.51 -1.81,-6.15 c 0.94,3.22 3.07,5.71 6.37,7.46 3.3,1.75 6.76,2.62 10.36,2.62 3.26,0 5.98,-0.66 8.17,-1.96 2.18,-1.31 3.28,-3.15 3.28,-5.5 0,-2.79 -0.92,-4.73 -2.77,-5.82 -1.84,-1.09 -4.77,-2.07 -8.81,-2.95 l -7.08,-1.57 c -4.71,-1.22 -8.45,-2.86 -11.19,-4.91 -2.75,-2.05 -4.12,-5.47 -4.12,-10.28 0,-4.63 1.78,-8.18 5.34,-10.67 3.56,-2.49 7.99,-3.73 13.31,-3.73 2.05,0 4.22,0.29 6.5,0.85 2.27,0.57 4.35,1.42 6.24,2.55 1.89,1.13 3.22,2.53 3.98,4.19 l -1.93,-0.65 v -5.9 h 7.6 v 17.67 h -6.69 l -1.67,-12.44 2.19,8.64 c -0.35,-1.57 -1.32,-2.94 -2.9,-4.12 -1.59,-1.17 -3.43,-2.11 -5.53,-2.81 -2.11,-0.7 -4.18,-1.05 -6.25,-1.05 -2.74,0 -5.21,0.56 -7.39,1.7 -2.19,1.13 -3.28,2.97 -3.28,5.5 0,1.91 0.75,3.4 2.25,4.45 1.49,1.05 3.96,2 7.39,2.88 l 6.56,1.44 c 3.26,0.78 6.2,1.73 8.82,2.81 2.61,1.09 4.69,2.66 6.24,4.71 1.55,2.05 2.31,4.95 2.31,8.71 0,3.4 -0.92,6.21 -2.77,8.44 -1.84,2.22 -4.24,3.86 -7.2,4.9 -2.95,1.080004 -6.05,1.600004 -9.31,1.600004 z"
   id="path40"
   inkscape:connector-curvature="0"
   style="fill:#ffffff" />
</svg>