<?xml version="1.0" encoding="utf-8"?>
<!-- Generator: Adobe Illustrator 26.3.1, SVG Export Plug-In . SVG Version: 6.00 Build 0)  -->
<svg version="1.1" id="Artwork" xmlns="http://www.w3.org/2000/svg" xmlns:xlink="http://www.w3.org/1999/xlink" x="0px" y="0px"
	 viewBox="0 0 952.5 203.6" style="enable-background:new 0 0 952.5 203.6;" xml:space="preserve">
<style type="text/css">
	.st0{fill:#0067B9;}
	.st1{fill:#69B3E7;}
	.st2{fill:#FFC107;}
	.st3{fill:#333E48;}
</style>
<g>
	<g>
		<g>
			<g>
				<g>
					<g>
						<path class="st0" d="M21.4,101.8c0-44.4,36-80.4,80.4-80.4c27.9,0,52.5,14.2,66.9,35.8l15.8,3.1l2-15
							C168.2,18,137.1,0,101.8,0C45.6,0,0,45.6,0,101.8c0,20.9,6.3,40.3,17.1,56.5l15.3,2l2.5-13.9
							C26.4,133.6,21.4,118.3,21.4,101.8z"/>
						<path class="st1" d="M186.7,45.7c-0.1-0.1-0.2-0.2-0.3-0.4l-17.8,11.9c0.1,0.1,0.2,0.2,0.3,0.4c8.4,12.7,13.3,27.9,13.3,44.2
							c0,44.4-36,80.4-80.4,80.4c-27.7,0-52.2-14-66.6-35.4c-0.1-0.1-0.2-0.3-0.2-0.4l-17.8,11.9c0.1,0.1,0.2,0.3,0.2,0.4
							c18.3,27.1,49.3,44.9,84.4,44.9c56.2,0,101.8-45.6,101.8-101.8C203.6,81.1,197.4,61.8,186.7,45.7z"/>
					</g>
				</g>
			</g>
			<g>
				<path class="st2" d="M101.8,101.8L53.4,69.5l0,64.5c0.5-0.3,0.9-0.6,0,0v0l30.4-9.4L101.8,101.8z"/>
				<path class="st3" d="M53.4,134h93.4c1.9,0,3.4-1.5,3.4-3.4l0-61.1L53.4,134z"/>
			</g>
		</g>
	</g>
	<g>
		<g>
			<path class="st3" d="M345.9,34.9V54h-62.2V94h54.8v19.1h-54.8v55.5h-22.1V34.9H345.9z"/>
			<path class="st3" d="M435.7,167.5v1.1h-19.3c-0.9-1.9-1.7-3.7-2.2-5.6c-8.4,4.3-20.2,7.4-30.1,7.4c-22.5,0-35.8-11.1-35.8-30.4
				c0-18.9,16.5-31.4,42-31.4c8.4,0,14.5,0.7,20.2,1.7v-2.8c0-13.9-8.4-20.8-23.4-20.8c-9.1,0-18.9,1.5-28.8,4.8l-5.4-15.4
				c12.6-4.6,24.3-7.1,36.4-7.1c16.2,0,25.6,4.1,32.1,10.4c6.7,6.7,9.7,16.3,9.7,28v30.6C431,147.8,432.3,158.6,435.7,167.5z
				 M387.4,153.9c7.4,0,16.2-1.9,23-5.4V125c-5.9-1.1-10.6-1.7-18.8-1.7c-15.2,0-23,5.9-23,15.8
				C368.6,149.1,375.3,153.9,387.4,153.9z"/>
			<path class="st3" d="M523.4,74.8l-5.2,15.6c-9.8-3-19.7-4.5-29.5-4.5c-11.9,0-17.5,4.5-17.5,10.6c0,6.3,4.3,10,19.9,13.9
				c27.7,6.9,37.9,15.4,37.9,30.1c0,19.9-14.9,29.9-42,29.9c-13.2,0-26.7-2.2-39.4-6.5l5.4-15.6c11,3.3,23.6,5.4,34,5.4
				c14.9,0,21.4-3.9,21.4-11.1c0-5.9-4.5-9.8-23.2-14.3c-25.4-6.1-34.2-15-34.2-30.6c0-16.5,13.4-28.6,37.7-28.6
				C500.9,69.1,512.4,71.1,523.4,74.8z"/>
			<path class="st3" d="M601.6,166.4c-6.3,2.6-14.9,4.1-22.1,4.1c-8.5,0-16.3-2.2-21.2-7.1c-5-5-7.2-11.5-7.2-22.5V88.6h-15.8V70.9
				h15.8V47.4h21.2v23.6H597v17.6h-24.7v49.6c0,10,4.5,14.5,13,14.5c4.5,0,9.3-0.9,13.2-2L601.6,166.4z"/>
			<path class="st3" d="M762.3,104.4v64.2H741v-61.1c0-12.8-7.8-20.2-20.2-20.2c-7.6,0-15.8,1.9-21.7,5.2v76.1h-21.2v-61.8
				c0-13.7-6.9-19.5-18.8-19.5c-6.9,0-15.6,2.2-23,6.3v75h-21.4V70.9h20.1v6.7c8.7-5.2,20.6-8.5,31.9-8.5c9.8,0,19.1,3.5,25.8,9.7
				c9.8-5.9,22.8-9.7,35.5-9.7c10.8,0,19.9,3.5,25.4,9.3C759.7,84.7,762.3,92.7,762.3,104.4z"/>
			<path class="st3" d="M866.4,167.5v1.1h-19.3c-0.9-1.9-1.7-3.7-2.2-5.6c-8.4,4.3-20.2,7.4-30.1,7.4c-22.5,0-35.8-11.1-35.8-30.4
				c0-18.9,16.5-31.4,42-31.4c8.4,0,14.5,0.7,20.2,1.7v-2.8c0-13.9-8.4-20.8-23.4-20.8c-9.1,0-18.9,1.5-28.8,4.8l-5.4-15.4
				c12.6-4.6,24.3-7.1,36.4-7.1c16.2,0,25.6,4.1,32.1,10.4c6.7,6.7,9.7,16.3,9.7,28v30.6C861.7,147.8,863,158.6,866.4,167.5z
				 M818.1,153.9c7.4,0,16.2-1.9,23-5.4V125c-5.9-1.1-10.6-1.7-18.8-1.7c-15.2,0-23,5.9-23,15.8C799.4,149.1,806,153.9,818.1,153.9z
				"/>
			<path class="st3" d="M906.8,33.8v18.4h-21.4V33.8H906.8z M906.8,70.9v97.7h-21.4V70.9H906.8z"/>
			<path class="st3" d="M952.5,31.2v137.4h-21.3V31.2H952.5z"/>
		</g>
	</g>
</g>
</svg>
